<svg xmlns="http://www.w3.org/2000/svg" xmlns:xlink="http://www.w3.org/1999/xlink" width="249" zoomAndPan="magnify" viewBox="0 0 186.75 476.999988" height="636" preserveAspectRatio="xMidYMid meet" version="1.0"><defs><clipPath id="a83ca2230c"><path d="M 0 7.765625 L 185 7.765625 L 185 475 L 0 475 Z M 0 7.765625 " clip-rule="nonzero"/></clipPath></defs><g clip-path="url(#a83ca2230c)"><path fill="#e6b960" d="M 163.257812 98.863281 C 162.75 101.605469 160.628906 103.6875 160.234375 106.554688 C 160.023438 108.003906 158.769531 109.324219 157.957031 110.691406 C 156.71875 112.730469 155.453125 114.738281 154.242188 116.707031 C 155.777344 119.730469 157.195312 122.585938 158.660156 125.414062 C 161.0625 130.039062 163.128906 134.75 163.328125 140.082031 C 165.859375 147 165.480469 154.214844 165.507812 161.386719 C 165.507812 162.972656 165.464844 164.589844 165.621094 166.167969 C 165.773438 167.855469 166.746094 169.148438 168.222656 169.921875 C 171.046875 171.382812 174.015625 172.578125 176.742188 174.195312 C 181.089844 176.785156 183.5625 180.875 184.605469 185.714844 C 185.589844 190.3125 184.476562 194.433594 180.722656 197.582031 C 179.808594 198.355469 178.964844 199.257812 177.953125 199.847656 C 174.480469 201.871094 171.34375 204.09375 169.726562 208.074219 C 168.824219 210.308594 166.828125 211.96875 164.691406 213.050781 C 161.695312 214.597656 160.710938 216.453125 161.976562 219.773438 C 162.652344 221.546875 162.484375 223.695312 162.527344 225.664062 C 162.695312 234.441406 162.933594 243.214844 162.890625 251.976562 C 162.878906 256.746094 162.722656 261.582031 161.976562 266.277344 C 161.148438 271.425781 160.824219 276.558594 160.839844 281.746094 C 160.839844 287.722656 160.738281 293.714844 160.5 299.691406 C 160.332031 303.65625 160.375 307.609375 159.191406 311.53125 C 158.40625 314.132812 158.628906 317.058594 158.574219 319.84375 C 158.308594 333.398438 158.097656 346.96875 157.84375 360.539062 C 157.800781 362.929688 158.011719 365.40625 157.476562 367.699219 C 156.097656 373.617188 156.410156 379.59375 156.308594 385.558594 C 156.140625 396.722656 156.070312 407.890625 155.816406 419.042969 C 155.707031 424.203125 155.902344 429.417969 154.117188 434.425781 C 153.722656 435.523438 153.738281 436.789062 153.722656 437.984375 C 153.625 445.183594 151.851562 452.1875 151.402344 459.332031 C 151.175781 463.03125 149.53125 466.222656 147.886719 469.414062 C 147.519531 470.117188 147.027344 470.777344 146.464844 471.339844 C 142.558594 475.195312 138.210938 476.640625 134.738281 470.664062 C 132.136719 466.207031 129.746094 461.554688 127.832031 456.769531 C 123.558594 446.054688 119.453125 435.269531 115.65625 424.386719 C 113.292969 417.59375 110.410156 411.054688 107.609375 404.457031 C 100.59375 387.976562 93.027344 371.734375 85.265625 355.589844 C 78.882812 342.316406 72.117188 329.222656 65.746094 315.933594 C 60.921875 305.894531 56.71875 295.570312 52.300781 285.347656 C 46.929688 272.945312 42.445312 260.160156 36.539062 247.984375 C 34.640625 244.058594 33.246094 239.867188 31.871094 235.71875 C 31.195312 233.695312 31.785156 231.839844 34.019531 230.796875 C 34.613281 230.53125 34.976562 229.757812 35.539062 229.125 C 34.808594 227.761719 34.148438 226.285156 33.246094 225.003906 C 32.867188 224.46875 31.96875 224.105469 31.277344 224.046875 C 30.546875 223.992188 29.730469 224.316406 29.042969 224.652344 C 24.851562 226.71875 20.519531 226.382812 16.191406 225.300781 C 14.644531 224.90625 12.871094 223.90625 12.6875 222.332031 C 12.152344 217.945312 9.582031 214.273438 8.792969 209.972656 C 8.003906 205.683594 6.402344 201.535156 5.558594 197.257812 C 4.855469 193.714844 5.25 190.199219 6.613281 186.699219 C 8.34375 182.253906 11.226562 179.34375 15.867188 178.21875 C 16.640625 178.035156 17.441406 177.964844 18.214844 177.769531 C 20.660156 177.121094 21.746094 175.671875 21.324219 173.578125 C 21.167969 172.804688 20.941406 172.03125 20.746094 171.269531 C 19.085938 165.011719 18.917969 158.65625 19.734375 152.285156 C 20.085938 149.542969 21.125 146.902344 21.730469 144.1875 C 22.265625 141.78125 21.113281 140.121094 18.917969 139.96875 C 17.722656 139.882812 16.527344 139.898438 15.332031 139.828125 C 14.542969 139.785156 13.757812 139.671875 12.96875 139.558594 C 11.269531 139.320312 9.902344 138.335938 9.089844 137 C 7.230469 133.964844 5.261719 130.910156 5.179688 127.144531 C 5.050781 121.910156 3.703125 116.890625 2.210938 111.925781 C 1.183594 108.523438 0.636719 105.007812 0.480469 101.535156 C 0.214844 95.179688 0.511719 88.78125 0.621094 82.410156 C 0.621094 81.648438 0.917969 80.863281 1.199219 80.144531 C 2.351562 77.191406 3.433594 74.195312 4.769531 71.328125 C 7.316406 65.871094 10.496094 61.007812 15.699219 57.449219 C 21.96875 53.144531 26.960938 47.308594 31.898438 41.570312 C 36.046875 36.75 39.941406 31.683594 43.554688 26.441406 C 49.558594 17.734375 57.855469 12.871094 67.980469 10.605469 C 79.542969 8.019531 82.804688 7.792969 94 7.949219 C 102.253906 8.058594 109.566406 10.902344 116.667969 14.628906 C 117.707031 15.175781 118.648438 15.976562 119.464844 16.820312 C 120.28125 17.679688 120.773438 18.859375 121.617188 19.675781 C 127.085938 24.964844 129.296875 31.613281 129.730469 38.984375 C 129.929688 42.191406 130.390625 45.296875 131.265625 48.390625 C 131.953125 50.851562 132.882812 52.863281 135.59375 53.496094 C 137.59375 53.960938 139.28125 55.015625 140.757812 56.378906 C 142.808594 58.265625 144.917969 60.105469 146.789062 62.171875 C 148.914062 64.523438 150.671875 67.222656 152.851562 69.515625 C 155.042969 71.804688 157.605469 73.746094 159.925781 75.925781 C 162.246094 78.121094 164.464844 80.414062 166.703125 82.675781 C 167.800781 83.789062 168.824219 84.96875 169.9375 86.164062 C 168.714844 89.765625 167.628906 93.167969 166.40625 96.515625 C 165.832031 98.101562 164.636719 99.085938 162.847656 99.199219 C 162.917969 98.019531 162.847656 96.796875 163.089844 95.640625 C 163.609375 93.167969 163.355469 90.917969 161.78125 88.851562 C 160.585938 87.289062 159.742188 85.53125 158.066406 84.25 C 156.199219 82.816406 154.722656 80.890625 153.105469 79.132812 C 149.589844 75.320312 146.113281 71.46875 142.585938 67.6875 C 142.0625 67.125 141.320312 66.742188 140.628906 66.378906 C 140.433594 66.265625 139.925781 66.421875 139.757812 66.617188 C 138.632812 67.925781 139.179688 69.683594 138.605469 71.144531 C 135.441406 79.1875 133.878906 80.019531 126.484375 80.230469 C 123.304688 80.328125 120.113281 80.046875 116.921875 80.03125 C 114.796875 80.03125 113.125 81.03125 111.816406 82.691406 C 111.5625 83 111.28125 83.296875 111.097656 83.648438 C 107.570312 90.621094 101.578125 92.816406 94.210938 92.335938 C 92.621094 92.238281 91.015625 92.167969 89.429688 92.085938 C 87.429688 91.984375 85.449219 91.875 83.453125 91.816406 C 80.863281 91.746094 79.261719 93.460938 79.121094 96.359375 C 79.078125 97.160156 78.910156 97.976562 79.023438 98.75 C 79.738281 103.25 78.417969 107.371094 77.039062 111.574219 C 75.746094 115.527344 73.539062 118.664062 70.371094 121.25 C 68.714844 122.601562 66.828125 122.953125 64.789062 122.964844 C 64.074219 121.574219 63.003906 120.265625 62.707031 118.789062 C 61.554688 112.980469 59.25 107.371094 59.824219 101.253906 C 60.050781 98.890625 59.824219 96.472656 59.742188 94.082031 C 59.683594 92.394531 57.660156 89.976562 56.113281 89.765625 C 49.757812 88.921875 43.414062 88.34375 37.59375 92.015625 C 34.851562 93.742188 31.671875 94.363281 28.648438 95.320312 C 27.582031 95.65625 26.285156 95.65625 25.191406 95.402344 C 23.65625 95.050781 21.996094 94.585938 20.746094 93.671875 C 17.160156 91.058594 13.195312 91.480469 9.230469 91.929688 C 8.609375 92 7.683594 92.828125 7.570312 93.449219 C 6.570312 98.582031 7.019531 103.757812 7.316406 108.945312 C 7.5 112.195312 8.46875 115.132812 9.523438 118.171875 C 10.816406 121.910156 11.519531 125.863281 12.476562 129.714844 C 13.25 132.796875 16.148438 134.960938 19.535156 135.074219 C 22.433594 135.171875 25.175781 134.679688 27.3125 132.640625 C 29.71875 130.347656 32.023438 130.222656 34.738281 132.09375 C 36.117188 133.035156 37.859375 132.753906 39.378906 132.304688 C 41.277344 131.742188 43.132812 130.996094 44.960938 130.222656 C 51.558594 127.425781 58.25 124.90625 65.058594 122.65625 C 65.128906 123.050781 65.058594 123.597656 65.296875 123.808594 C 67.390625 125.679688 70.007812 126.652344 72.621094 127.382812 C 75.773438 128.253906 78.964844 128 81.75 125.960938 C 83.03125 125.019531 84.238281 123.980469 85.449219 122.925781 C 88.90625 119.929688 92.550781 119.859375 96.488281 121.96875 C 98.582031 123.09375 100.777344 124.0625 103 124.90625 C 104.546875 125.484375 106.164062 125.175781 107.539062 124.230469 C 110.226562 122.417969 112.351562 120.054688 114.023438 117.3125 C 115.667969 114.597656 117.171875 111.785156 118.804688 109.058594 C 120.507812 106.21875 123.78125 105.429688 127.257812 106.359375 C 128.761719 106.753906 130.179688 107.582031 131.574219 108.339844 C 135.875 110.703125 140.488281 111.464844 145.371094 111.519531 C 149.558594 111.574219 151.808594 109.804688 153.398438 105.9375 C 154.777344 102.589844 156.097656 99.355469 156.378906 95.742188 C 156.4375 94.953125 156.675781 94.195312 156.832031 93.421875 C 157.027344 92.4375 157.632812 92.113281 158.617188 92.507812 C 158.953125 92.648438 159.347656 92.828125 159.53125 93.125 C 160.738281 95.050781 160.542969 97.890625 163.257812 98.863281 Z M 105.460938 317.058594 C 105.179688 314.582031 106.515625 312.671875 107.582031 310.632812 C 108.46875 308.929688 107.976562 306.609375 106.542969 305.402344 C 103.601562 302.941406 100.59375 300.5625 97.402344 297.976562 C 96.078125 298.761719 94.800781 299.523438 93.519531 300.28125 C 93.5625 299.886719 93.605469 299.496094 93.648438 299.113281 C 93.929688 296.667969 93.546875 294.503906 91.609375 292.703125 C 89.300781 290.550781 86.980469 288.46875 84.265625 286.839844 C 83.507812 286.386719 82.917969 286.121094 82.128906 286.347656 C 81.46875 286.542969 80.441406 286.9375 80.148438 286.65625 C 79.667969 286.207031 79.625 285.261719 79.484375 284.519531 C 79.332031 283.757812 79.515625 282.789062 79.105469 282.253906 C 76.503906 278.835938 74.410156 274.800781 70.796875 272.453125 C 67.910156 270.582031 66.5625 268.164062 65.632812 265.070312 C 67.054688 264.535156 68.472656 263.988281 69.894531 263.4375 C 70.246094 264.507812 70.359375 265.730469 70.976562 266.601562 C 73.621094 270.328125 76.828125 273.535156 80.890625 275.714844 C 81.804688 276.207031 83.101562 275.980469 84.226562 276.082031 C 84.703125 277.148438 85 278.34375 85.671875 279.246094 C 88.273438 282.660156 91.550781 285.433594 94.984375 287.992188 C 95.828125 288.625 97.175781 288.355469 98.175781 287.5 C 99.03125 286.769531 100.015625 286.191406 100.960938 285.542969 C 100.621094 287.089844 100.46875 288.695312 99.890625 290.15625 C 99.398438 291.421875 99.46875 292.464844 100.339844 293.347656 C 103.140625 296.175781 105.992188 298.945312 108.863281 301.703125 C 110.03125 302.8125 111.898438 302.503906 113.039062 301.210938 C 115.949219 297.890625 118.328125 294.25 120.070312 290.199219 C 120.421875 289.382812 120.027344 287.667969 119.324219 286.878906 C 116.371094 283.589844 113.039062 280.777344 109.085938 278.792969 C 108.554688 278.527344 107.328125 278.824219 106.90625 279.285156 C 105.601562 280.761719 104.515625 282.421875 103.351562 284.027344 C 102.648438 285.011719 101.84375 285.839844 100.566406 285.996094 C 100.960938 284.503906 101.183594 282.941406 101.789062 281.550781 C 102.71875 279.414062 103.914062 277.386719 105.066406 275.167969 C 101.691406 270.597656 97.09375 267.8125 92.324219 264.773438 C 90.847656 267.445312 89.582031 269.851562 88.191406 272.171875 C 87.824219 272.789062 87.050781 273.167969 86.476562 273.648438 C 86.292969 271.328125 86.417969 269.160156 87.65625 267.011719 C 89.820312 263.214844 90.285156 261.679688 86.136719 258.121094 C 84.394531 256.617188 82.75 255 81.03125 253.46875 C 79.78125 252.355469 78.179688 252.484375 76.671875 252.34375 C 76.28125 250.515625 76.265625 248.574219 74.789062 247.109375 C 73.4375 245.773438 72.1875 244.355469 70.90625 242.949219 C 69.851562 241.796875 69.347656 240.375 69.121094 238.855469 C 70.5 239.488281 72.003906 239.925781 73.214844 240.78125 C 75.84375 242.652344 78.726562 243.089844 81.804688 242.851562 L 81.425781 242.511719 C 81.523438 244.085938 81.425781 245.789062 82.777344 246.914062 C 85.84375 249.429688 88.949219 251.90625 92.128906 254.269531 C 92.578125 254.59375 94.011719 254.4375 94.28125 254.03125 C 96.445312 250.726562 98.484375 247.320312 100.425781 243.875 C 100.71875 243.34375 100.550781 242.117188 100.117188 241.65625 C 96.882812 238.152344 93.546875 234.734375 90.1875 231.375 C 89.078125 230.265625 87.824219 229.25 86.503906 228.394531 C 85.925781 228.027344 84.941406 227.929688 84.28125 228.125 C 82.777344 228.589844 81.371094 229.421875 79.867188 229.898438 C 77.136719 230.769531 74.367188 230.785156 71.722656 229.546875 C 69.570312 228.546875 67.378906 227.621094 65.605469 225.90625 C 64.789062 225.117188 63.691406 224.597656 62.667969 224.035156 C 62.355469 223.867188 61.792969 223.824219 61.511719 223.992188 C 59.726562 225.019531 58.671875 226.71875 57.632812 228.421875 C 55.886719 231.261719 53.1875 232.878906 50.304688 234.3125 C 48.027344 235.4375 45.734375 235.496094 43.414062 234.496094 C 42.683594 234.1875 41.964844 233.863281 41.207031 233.640625 C 40.871094 233.539062 40.433594 233.554688 40.125 233.679688 C 39.195312 234.074219 39.363281 234.664062 39.660156 235.636719 C 42.023438 243.242188 46.253906 250.078125 48.84375 257.589844 C 49.277344 258.867188 50.683594 258.925781 51.839844 259.164062 C 52.230469 259.246094 52.625 259.261719 53.019531 259.304688 C 52.414062 262.074219 52.21875 264.800781 53.316406 267.53125 C 56.4375 275.277344 59.234375 283.183594 62.707031 290.777344 C 66.027344 298.003906 69.136719 305.316406 72.765625 312.417969 C 80.921875 328.394531 90.117188 343.792969 98.554688 359.613281 C 101.535156 365.195312 104.601562 370.707031 109.875 374.757812 C 112.984375 377.148438 115.316406 380.550781 118.015625 383.503906 C 119.085938 384.671875 120.167969 385.851562 121.28125 386.976562 C 124.472656 390.199219 126.371094 393.953125 127.496094 399.339844 C 123.769531 396.386719 120.378906 393.082031 117.171875 389.578125 C 116.386719 388.722656 115.386719 388.03125 114.429688 387.328125 C 114.277344 387.21875 113.769531 387.300781 113.617188 387.46875 C 113.375 387.738281 113.082031 388.214844 113.179688 388.46875 C 116.148438 396.175781 119.3125 403.8125 122.09375 411.589844 C 122.96875 414.035156 124.402344 415.625 126.382812 417.003906 C 127.328125 417.648438 128.3125 418.324219 129.027344 419.183594 C 130.546875 420.980469 131.925781 422.921875 133.34375 424.808594 C 134.976562 426.972656 137.183594 427.367188 139.6875 426.847656 C 138.902344 429.589844 138.589844 432.261719 140.53125 434.734375 C 141.542969 436.042969 141.714844 437.617188 141.644531 439.234375 C 139.5625 438.882812 138.617188 437.042969 137.183594 435.847656 C 136.285156 435.101562 135.382812 434.480469 134.132812 434.792969 C 134.132812 430.980469 131.867188 428.363281 129.378906 425.890625 C 128.648438 425.160156 128.015625 425.144531 127.59375 425.777344 C 127.382812 426.085938 127.101562 426.4375 127.101562 426.777344 C 126.988281 430.417969 128.675781 433.414062 130.574219 436.308594 C 130.757812 436.578125 131.25 436.648438 131.601562 436.800781 C 131.082031 438.25 130.167969 439.542969 130.714844 441.273438 C 133.261719 449.164062 136.367188 456.8125 139.914062 464.296875 C 140.277344 465.054688 141.109375 465.152344 141.964844 464.730469 C 142.289062 464.578125 142.585938 464.324219 142.808594 464.042969 C 143.050781 463.746094 143.34375 463.378906 143.359375 463.027344 C 143.695312 457.515625 144.046875 451.988281 144.230469 446.464844 C 144.273438 445.339844 143.753906 444.15625 143.300781 443.074219 C 142.699219 441.625 141.925781 440.246094 141.222656 438.855469 C 141.613281 438.828125 142.007812 438.8125 142.402344 438.769531 C 143.191406 438.6875 144.132812 438.828125 144.722656 438.433594 C 145.269531 438.066406 145.707031 437.152344 145.75 436.449219 C 145.960938 432.5 146.15625 428.546875 146.085938 424.609375 C 146.058594 423.414062 144.835938 422.824219 143.5 423.148438 C 143.625 421.109375 144.316406 419.292969 145.621094 417.734375 C 147.492188 415.511719 148.210938 412.953125 148.183594 410.070312 C 148.140625 406.117188 148.292969 402.167969 148.324219 398.214844 C 148.324219 397.835938 148.183594 397.398438 147.957031 397.105469 C 147.789062 396.890625 147.296875 396.722656 147.058594 396.820312 C 145.988281 397.273438 144.960938 397.820312 143.90625 398.328125 C 143.933594 396.246094 144.820312 394.515625 146.042969 392.882812 C 147.761719 390.59375 148.644531 387.992188 148.675781 385.109375 C 148.757812 376.753906 148.84375 368.414062 148.84375 360.0625 C 148.84375 359.5 148.097656 358.894531 147.589844 358.402344 C 147.492188 358.320312 146.847656 358.65625 146.578125 358.921875 C 144.300781 361.160156 143.597656 364.5625 141.023438 366.558594 C 140.449219 367.007812 139.617188 367.121094 138.914062 367.390625 C 138.367188 363.410156 141.222656 360.835938 143.050781 357.910156 C 144.300781 355.914062 146.214844 354.351562 147.589844 352.425781 C 149.476562 349.824219 150.644531 346.914062 150.699219 343.59375 C 150.8125 336.84375 151.035156 330.109375 151.136719 323.371094 C 151.148438 322.234375 150.699219 321.082031 150.417969 319.714844 C 148.503906 320.574219 146.761719 321.347656 145.03125 322.121094 C 146.171875 320.039062 147.015625 317.707031 148.519531 315.933594 C 151.066406 312.925781 151.417969 309.4375 151.429688 305.863281 C 151.472656 293.167969 151.386719 280.46875 151.304688 267.753906 C 151.277344 264.589844 150.726562 261.414062 151.007812 258.292969 C 151.304688 255.113281 151.542969 251.960938 151.304688 248.796875 C 151.035156 245.128906 152.835938 241.851562 153.089844 238.28125 C 153.257812 235.804688 153.105469 233.539062 150.996094 231.824219 C 147.929688 229.320312 145.089844 226.648438 141.613281 224.582031 C 138.296875 222.601562 135.695312 219.394531 132.742188 216.777344 C 132.515625 216.582031 131.96875 216.695312 131.574219 216.75 C 129.886719 216.988281 128.875 218.28125 127.734375 219.335938 C 125.371094 221.53125 122.828125 223.304688 119.464844 223.65625 C 118.085938 223.796875 117.695312 225.257812 118.609375 226.085938 C 121.84375 229.011719 125.046875 231.980469 128.382812 234.804688 C 129.253906 235.550781 130.492188 235.4375 131.714844 234.960938 C 133.542969 234.242188 133.976562 234.523438 133.625 235.875 C 133.132812 237.800781 132.5 239.628906 134.441406 241.203125 C 135.03125 241.683594 135.425781 242.429688 135.835938 243.101562 C 136.015625 243.398438 136.214844 243.875 136.089844 244.117188 C 135.636719 245 134.835938 245.253906 134.089844 244.679688 C 131.476562 242.667969 129.097656 243.132812 126.835938 245.253906 C 127.945312 241.976562 127.648438 239.125 124.894531 236.59375 C 121.378906 233.371094 117.59375 230.265625 114.851562 226.453125 C 111.773438 222.179688 107.359375 219.519531 103.941406 215.738281 C 101.886719 213.472656 99.625 213.585938 97.808594 215.625 C 95.96875 217.707031 94.167969 219.828125 92.382812 221.96875 C 91.285156 223.289062 91.199219 225.203125 92.339844 226.257812 C 96.109375 229.773438 99.90625 233.257812 103.785156 236.648438 C 104.109375 236.929688 105.136719 236.394531 105.839844 236.226562 C 106.585938 236.042969 107.328125 235.859375 108.074219 235.679688 L 107.75 235.398438 C 107.78125 235.789062 107.851562 236.171875 107.820312 236.5625 C 107.652344 238.941406 107.78125 241.246094 109.648438 243.03125 C 112.449219 245.71875 115.261719 248.375 118.117188 251.007812 C 118.679688 251.527344 119.4375 251.300781 120.210938 250.867188 C 122.898438 249.347656 123.726562 245.621094 127.144531 244.972656 C 126.679688 246.476562 126.582031 248.25 125.679688 249.429688 C 121.167969 255.351562 122.601562 255.816406 126.875 260.34375 C 129.871094 263.523438 133.050781 266.546875 136.144531 269.640625 C 136.890625 270.386719 137.003906 272.113281 136.285156 272.917969 C 134.976562 274.363281 133.824219 276.050781 131.671875 276.417969 C 132.628906 272.707031 132.078125 269.527344 128.886719 266.941406 C 126.144531 264.730469 123.683594 262.171875 120.984375 259.910156 C 120.605469 259.597656 119.171875 259.824219 118.890625 260.246094 C 117.582031 262.1875 116.371094 264.210938 115.402344 266.335938 C 114.289062 268.769531 111.589844 270.246094 111.296875 273.421875 C 114.628906 277.628906 118.789062 281.183594 122.839844 284.6875 C 124.484375 284.136719 125.890625 283.6875 127.296875 283.222656 C 127.296875 283.984375 127.425781 284.785156 127.242188 285.515625 C 126.609375 288.019531 127.59375 289.875 129.140625 291.773438 C 130.785156 293.828125 133.472656 295.050781 134.148438 297.890625 L 134.484375 297.566406 C 133.359375 297.398438 132.050781 297.527344 131.136719 296.992188 C 129.464844 296.007812 128.058594 294.585938 126.496094 293.40625 C 125.300781 292.503906 123.078125 292.828125 122.277344 293.996094 C 119.875 297.566406 117.398438 301.097656 115.191406 304.78125 C 114.683594 305.625 114.699219 307.230469 115.164062 308.128906 C 116.035156 309.84375 117.371094 311.335938 118.578125 312.867188 C 119.621094 314.175781 119.875 315.679688 120.027344 317.253906 C 117.34375 315.105469 114.65625 312.9375 111.730469 310.589844 C 110.15625 312.574219 108.820312 314.371094 107.328125 316.046875 C 106.867188 316.566406 106.035156 316.761719 105.375 317.101562 Z M 146.367188 177.992188 L 146.296875 177.921875 C 146.085938 176.109375 147.589844 175.152344 148.335938 173.800781 C 149.671875 171.355469 150.8125 168.796875 152.230469 166.40625 C 152.792969 165.449219 153.847656 164.859375 155.15625 164.832031 C 158.390625 164.773438 158.730469 164.492188 158.6875 162.144531 C 158.546875 156.167969 158.40625 150.191406 158.207031 144.214844 C 158.125 141.417969 157.5625 138.714844 156.464844 136.085938 C 155.226562 133.160156 154.398438 130.066406 153.1875 127.128906 C 152.441406 125.300781 151.445312 123.542969 150.347656 121.882812 C 148.984375 119.832031 147.128906 118.226562 144.46875 118.355469 C 139.125 118.621094 134.257812 117.046875 129.546875 114.78125 C 128.832031 114.445312 128.128906 114.050781 127.410156 113.742188 C 125.992188 113.136719 123.769531 113.542969 123.078125 114.710938 C 120.648438 118.832031 117.214844 122.207031 114.742188 126.339844 C 112.5625 129.984375 108.652344 131.292969 104.65625 132.050781 C 103.914062 132.191406 103.027344 132.050781 102.324219 131.769531 C 99.75 130.714844 97.21875 129.519531 94.671875 128.410156 C 91.929688 127.226562 89.289062 127.226562 86.757812 129.011719 C 85.140625 130.152344 83.550781 131.402344 81.777344 132.246094 C 78.136719 134.003906 74.464844 135.3125 70.375 133.160156 C 68.292969 132.066406 65.886719 131.601562 63.636719 130.828125 C 62.074219 130.292969 60.488281 130.136719 58.996094 130.855469 C 51.375 134.511719 43.371094 136.664062 34.964844 137.410156 C 33.289062 137.5625 32.050781 138.464844 31.136719 139.910156 C 27.875 145.101562 26.160156 150.738281 26.1875 156.871094 C 26.1875 160.851562 26.273438 164.84375 26.425781 168.824219 C 26.527344 171.214844 26.847656 173.589844 27.046875 175.96875 C 27.117188 176.753906 27.171875 177.570312 27.058594 178.359375 C 26.835938 179.992188 26.132812 181.496094 24.597656 182.199219 C 21.703125 183.507812 18.652344 184.476562 15.78125 185.828125 C 13.941406 186.699219 12.589844 188.300781 12.335938 190.425781 C 11.832031 194.796875 11.84375 199.15625 13.207031 203.433594 C 14.785156 208.355469 16.132812 213.347656 17.089844 218.4375 C 17.457031 220.390625 19.382812 221.558594 21.574219 221.433594 C 24.09375 221.277344 26.214844 220.265625 27.820312 218.367188 C 28.832031 217.171875 29.550781 215.722656 30.546875 214.515625 C 31.628906 213.207031 35.160156 213.320312 35.933594 214.625 C 37.550781 217.367188 39.140625 220.109375 40.644531 222.921875 C 41.628906 224.78125 43.203125 225.917969 44.933594 226.945312 C 46.886719 228.113281 48.886719 228.070312 50.402344 226.621094 C 51.839844 225.257812 53.273438 223.867188 54.496094 222.304688 C 55.972656 220.433594 57.152344 218.339844 58.574219 216.414062 C 60.585938 213.699219 63.398438 213.460938 65.660156 215.738281 C 66.785156 216.863281 67.800781 218.101562 68.9375 219.210938 C 74.957031 225.0625 76.828125 223.867188 82.648438 220.757812 C 85.054688 219.476562 87.050781 217.382812 89.0625 215.484375 C 91.679688 213.039062 94.054688 210.324219 96.699219 207.90625 C 97.515625 207.160156 98.835938 206.792969 99.976562 206.652344 C 102.40625 206.359375 104.882812 206.609375 106.597656 208.566406 C 109.285156 211.644531 112.589844 213.769531 116.175781 215.554688 C 118.285156 216.609375 121.292969 216.300781 122.910156 214.835938 C 125.582031 212.433594 128.15625 210 129.675781 206.597656 C 130.632812 204.445312 131.980469 202.449219 133.332031 200.492188 C 133.726562 199.929688 134.640625 199.621094 135.382812 199.425781 C 136.972656 198.988281 138.589844 199.226562 140.039062 199.902344 C 143.992188 201.773438 147.886719 203.769531 151.824219 205.695312 C 154.398438 206.960938 157.140625 207.328125 159.964844 207.0625 C 162.105469 206.851562 163.988281 205.78125 164.636719 203.839844 C 166 199.777344 167.996094 195.742188 166.644531 191.15625 C 166.476562 190.578125 167.714844 190.003906 168.558594 190.199219 C 169.289062 190.382812 170.191406 190.609375 170.613281 191.128906 C 171.835938 192.660156 172.847656 194.363281 173.957031 195.992188 C 175.996094 195.359375 177.320312 194.039062 177.726562 191.914062 C 177.882812 191.140625 177.996094 190.339844 178.035156 189.554688 C 178.289062 185.179688 176.882812 181.820312 172.582031 179.933594 C 167.839844 177.867188 163.160156 175.671875 159.488281 171.835938 C 158.828125 171.132812 157.183594 171.398438 156.253906 172.1875 C 154.117188 173.984375 152.078125 175.914062 149.800781 177.5 C 148.957031 178.09375 147.550781 177.851562 146.394531 177.992188 Z M 68.402344 112.195312 C 70.542969 111.5625 71.863281 110.085938 72.003906 107.933594 C 72.328125 102.757812 72.441406 97.570312 72.652344 92.394531 C 72.804688 88.710938 76.800781 84.800781 80.570312 84.773438 C 83.761719 84.742188 86.953125 84.898438 90.144531 84.953125 C 92.945312 85.011719 95.726562 85.136719 98.527344 85.039062 C 101 84.953125 103.167969 84.011719 104.785156 82.015625 C 106.289062 80.160156 107.722656 78.21875 109.425781 76.546875 C 112.082031 73.929688 115.316406 72.425781 119.15625 72.902344 C 121.914062 73.242188 124.640625 73.789062 127.382812 74.167969 C 128.804688 74.367188 131.699219 72.03125 131.757812 70.609375 C 131.867188 67.433594 131.910156 64.242188 131.855469 61.0625 C 131.855469 60.332031 131.515625 59.359375 130.984375 58.925781 C 127.328125 55.984375 126.117188 51.738281 124.78125 47.578125 C 123.558594 43.78125 122.96875 39.84375 122.277344 35.90625 C 120.984375 28.519531 117.523438 22.402344 110.464844 18.945312 C 106.5 17.003906 102.28125 15.824219 97.921875 15.371094 C 86.445312 14.164062 77.628906 14.910156 67.109375 17.890625 C 60.488281 19.761719 54.355469 22.515625 50.164062 28.367188 C 49.238281 29.660156 47.972656 30.730469 47.15625 32.078125 C 42.597656 39.671875 35.835938 45.4375 30.632812 52.511719 C 28.285156 55.703125 25.246094 58.375 21.914062 60.65625 C 19.945312 61.992188 18.089844 63.523438 16.316406 65.125 C 11.621094 69.375 9.339844 74.71875 9.355469 81.058594 C 9.355469 82.675781 10.578125 84.503906 12.027344 84.363281 C 17.019531 83.914062 21.394531 85.644531 25.695312 87.851562 C 26.707031 88.371094 27.933594 88.511719 29.128906 88.851562 C 32.785156 87.164062 36.371094 85.460938 39.996094 83.84375 C 41.445312 83.195312 42.9375 82.453125 44.46875 82.28125 C 48.84375 81.820312 53.246094 81.988281 57.589844 82.675781 C 60.640625 83.167969 64.535156 86.8125 64.902344 89.835938 C 65.578125 95.359375 67.265625 100.734375 67.179688 106.386719 C 67.152344 108.328125 67.292969 110.378906 68.390625 112.167969 Z M 96.402344 258.121094 C 98.722656 262.03125 102.167969 264.703125 105.234375 267.726562 C 106.964844 269.429688 109.03125 269.21875 110.113281 267.320312 C 112.265625 263.550781 114.402344 259.78125 116.582031 255.957031 C 114.066406 252.792969 111.054688 250.375 103.96875 245.902344 C 101.480469 249.925781 99.003906 253.933594 96.417969 258.109375 Z M 134.582031 212.375 C 137.015625 214.246094 139.589844 215.992188 141.882812 218.042969 C 144.214844 220.125 146.253906 222.53125 148.433594 224.792969 C 149.25 225.636719 150.066406 226.480469 150.9375 227.269531 C 151.207031 227.507812 151.65625 227.632812 152.035156 227.664062 C 152.683594 227.71875 153.203125 227.242188 153.441406 226.3125 C 154.199219 223.289062 154.945312 220.25 155.675781 217.214844 C 155.902344 216.285156 155.101562 214.597656 154.242188 214.261719 C 149.179688 212.195312 144.003906 210.367188 139.421875 207.285156 C 138.578125 206.710938 137.296875 207.171875 136.296875 208.171875 C 135.132812 209.339844 134.484375 210.6875 134.582031 212.375 Z M 134.582031 212.375 " fill-opacity="1" fill-rule="nonzero"/></g><path fill="#e6b960" d="M 86.8125 201.421875 C 85.785156 201.113281 84.914062 201.070312 84.324219 200.632812 C 83.058594 199.691406 81.875 198.636719 80.820312 197.46875 C 80.398438 197.007812 80.328125 196.164062 80.273438 195.472656 C 80.257812 195.320312 80.890625 194.96875 81.257812 194.925781 C 89.949219 193.855469 98.316406 191.480469 106.078125 187.515625 C 112.125 184.421875 118.609375 182.761719 124.949219 180.625 C 126.792969 180.003906 128.804688 179.820312 130.6875 180.835938 C 131.503906 181.269531 131.839844 181.902344 131.515625 182.816406 C 131.265625 183.535156 131.09375 184.390625 130.589844 184.882812 C 129.757812 185.699219 128.761719 186.683594 127.691406 186.882812 C 119.816406 188.273438 112.703125 191.5625 105.488281 194.828125 C 99.414062 197.570312 92.886719 199.3125 86.796875 201.421875 Z M 86.8125 201.421875 " fill-opacity="1" fill-rule="nonzero"/><path fill="#e6b960" d="M 39.898438 195.796875 C 39.253906 195.980469 38.605469 196.21875 37.945312 196.289062 C 37.691406 196.316406 37.394531 195.980469 37.113281 195.8125 C 37.410156 195.628906 37.691406 195.390625 38.015625 195.277344 C 38.339844 195.179688 38.730469 195.136719 39.042969 195.21875 C 39.351562 195.304688 39.617188 195.585938 39.898438 195.769531 Z M 39.898438 195.796875 " fill-opacity="1" fill-rule="nonzero"/><path fill="#e6b960" d="M 146.367188 177.992188 C 146.285156 179.246094 145.523438 179.820312 144.371094 180.046875 C 143.570312 180.203125 142.910156 179.976562 142.542969 179.21875 C 142.488281 179.117188 142.921875 178.613281 143.203125 178.542969 C 144.230469 178.273438 145.285156 178.121094 146.3125 177.921875 L 146.382812 177.992188 Z M 146.367188 177.992188 " fill-opacity="1" fill-rule="nonzero"/><path fill="#e6b960" d="M 89.484375 307.144531 C 89.539062 308.816406 90.566406 310.042969 91.734375 310.957031 C 95.011719 313.542969 98.414062 315.960938 101.773438 318.4375 C 103.125 317.847656 104.476562 317.257812 105.824219 316.664062 C 105.753906 317.453125 105.726562 318.242188 105.585938 319.015625 C 105.261719 320.671875 105.683594 322.164062 106.808594 323.359375 C 108.695312 325.355469 110.648438 327.296875 112.632812 329.210938 C 114.726562 331.25 115.316406 331.359375 120.167969 331.121094 C 119.789062 333.046875 119.5625 334.960938 121.140625 336.535156 C 123.050781 338.449219 124.964844 340.359375 126.890625 342.257812 C 127.664062 343.019531 129.265625 342.960938 130 342.21875 C 131.910156 340.277344 133.726562 338.265625 134.710938 335.691406 C 135.722656 333.046875 137.832031 331.304688 139.703125 329.378906 C 140.167969 328.914062 141.066406 328.871094 141.769531 328.648438 C 142.066406 332.527344 139.253906 335.117188 137.675781 338.195312 C 136.988281 339.546875 135.582031 340.515625 134.640625 341.753906 C 133.695312 343.003906 132.851562 344.339844 132.109375 345.703125 C 130.027344 349.53125 129.378906 350.246094 127.339844 351.457031 C 126.484375 351.976562 125.792969 352.3125 125.5 351.609375 C 125.246094 350.992188 125.175781 350.007812 125.511719 349.488281 C 126.820312 347.492188 126.484375 345.914062 124.695312 344.46875 C 123.78125 343.722656 122.898438 342.933594 122.066406 342.105469 C 119.015625 339.082031 114.867188 337.578125 111.886719 334.285156 C 109.285156 331.429688 105.699219 329.492188 102.464844 327.070312 C 101.03125 327.734375 99.679688 328.367188 98.316406 329 C 98.371094 328.605469 98.414062 328.210938 98.5 327.832031 C 98.921875 325.75 98.625 323.765625 96.910156 322.460938 C 89.933594 317.171875 83.886719 310.941406 78.109375 304.429688 C 77.617188 303.882812 77.433594 303.050781 77.09375 302.363281 C 77.09375 302.363281 76.757812 302.730469 76.757812 302.730469 C 78.332031 302.53125 79.878906 302.519531 81.242188 303.472656 C 82.523438 304.359375 83.789062 305.289062 85.054688 306.1875 C 86.40625 307.144531 87.910156 307.328125 89.5 307.144531 Z M 89.484375 307.144531 " fill-opacity="1" fill-rule="nonzero"/><path fill="#e6b960" d="M 96.148438 333.511719 C 96.640625 334.554688 96.953125 335.777344 97.683594 336.605469 C 100.015625 339.292969 102.800781 341.625 104.867188 344.496094 C 106.738281 347.070312 109.777344 348.433594 111.226562 351.414062 C 111.886719 352.777344 113.152344 354.042969 114.445312 354.84375 C 118.226562 357.179688 120.226562 361.230469 123.570312 363.957031 C 126.625 366.445312 129.730469 368.878906 132.796875 371.328125 C 134.921875 370.875 135.707031 368.851562 137.210938 367.710938 C 137.773438 367.277344 138.617188 367.207031 139.335938 366.980469 C 139.644531 369.105469 138.675781 370.820312 137.5625 372.480469 C 136.566406 373.984375 136.734375 375.546875 137.648438 376.921875 C 138.296875 377.894531 138.28125 378.738281 137.210938 378.609375 C 133.515625 378.1875 131.433594 380.578125 129.167969 382.757812 C 128.945312 382.96875 128.4375 383.238281 128.28125 383.140625 C 127.523438 382.617188 127.398438 381.84375 127.890625 381.03125 C 128.902344 379.328125 129.929688 377.640625 130.925781 375.96875 C 130.714844 374.25 129.546875 373.183594 128.339844 372.242188 C 122.714844 367.867188 117.074219 363.523438 111.394531 359.21875 C 104.726562 354.15625 99.242188 347.855469 93.308594 342.035156 C 91.929688 339.195312 90.523438 336.367188 89.1875 333.511719 C 89.078125 333.289062 89.300781 332.796875 89.527344 332.554688 C 89.722656 332.34375 90.203125 332.148438 90.425781 332.246094 C 92.253906 333.007812 94.027344 333.921875 96.121094 333.539062 Z M 96.148438 333.511719 " fill-opacity="1" fill-rule="nonzero"/><path fill="#e6b960" d="M 77.066406 302.363281 C 75.660156 301.941406 73.960938 302.292969 72.960938 300.84375 C 72.765625 300.550781 72.652344 300.097656 72.695312 299.746094 C 72.820312 298.636719 73.339844 298.453125 74.140625 299.15625 C 75.265625 300.15625 76.546875 301.042969 76.730469 302.730469 Z M 77.066406 302.363281 " fill-opacity="1" fill-rule="nonzero"/><path fill="#e6b960" d="M 62.371094 240.402344 C 62.667969 239.363281 62.878906 238.28125 63.269531 237.28125 C 63.820312 235.929688 65.296875 235.832031 66.746094 237.042969 C 67.011719 237.265625 67.207031 237.589844 67.433594 237.871094 C 66.730469 238.125 66 238.320312 65.339844 238.660156 C 64.3125 239.179688 63.339844 239.8125 62.355469 240.390625 Z M 62.371094 240.402344 " fill-opacity="1" fill-rule="nonzero"/><path fill="#e6b960" d="M 136.832031 405.484375 C 136.75 406.246094 136.71875 407.003906 136.566406 407.734375 C 136.382812 408.664062 135.890625 409.140625 135.328125 408.929688 C 135.0625 408.832031 134.808594 408.382812 134.738281 408.058594 C 134.582031 407.3125 134.554688 406.554688 134.484375 405.792969 C 135.285156 405.808594 136.058594 405.710938 136.832031 405.484375 Z M 136.832031 405.484375 " fill-opacity="1" fill-rule="nonzero"/><path fill="#e6b960" d="M 98.570312 328.675781 C 98.035156 330.574219 98.1875 332.835938 95.898438 333.835938 C 96.585938 332.007812 96.445312 329.773438 98.570312 328.675781 Z M 98.570312 328.675781 " fill-opacity="1" fill-rule="nonzero"/><path fill="#e6b960" d="M 93.773438 299.972656 C 93.589844 300.703125 93.394531 301.433594 93.210938 302.167969 C 92.929688 303.292969 92.492188 304.304688 91.296875 304.753906 C 91.425781 303.980469 91.539062 303.207031 91.691406 302.449219 C 91.929688 301.253906 92.492188 300.296875 93.773438 299.972656 Z M 93.773438 299.972656 " fill-opacity="1" fill-rule="nonzero"/><path fill="#e6b960" d="M 74.632812 256.828125 C 74.128906 259.007812 73.820312 261.316406 71.132812 262.019531 C 71.539062 260.992188 71.976562 259.964844 72.371094 258.925781 C 72.777344 257.828125 73.425781 257.027344 74.648438 256.828125 Z M 74.632812 256.828125 " fill-opacity="1" fill-rule="nonzero"/><path fill="#e6b960" d="M 52.78125 259.613281 C 52.933594 258.542969 53.003906 257.460938 53.273438 256.433594 C 53.554688 255.339844 54.371094 254.691406 55.480469 254.425781 C 55.214844 256.476562 55.199219 258.683594 52.78125 259.628906 Z M 52.78125 259.613281 " fill-opacity="1" fill-rule="nonzero"/><path fill="#e6b960" d="M 77.082031 251.976562 C 76.773438 254.042969 76.476562 256.113281 74.351562 257.222656 C 74.480469 256.125 74.507812 255 74.761719 253.945312 C 75.042969 252.808594 75.914062 252.175781 77.082031 251.992188 Z M 77.082031 251.976562 " fill-opacity="1" fill-rule="nonzero"/><path fill="#e6b960" d="M 55.15625 254.832031 C 55.226562 254.128906 55.296875 253.410156 55.382812 252.707031 C 55.578125 251.191406 56.308594 250.078125 57.855469 249.628906 C 57.535156 251.667969 57.574219 253.890625 55.15625 254.832031 Z M 55.15625 254.832031 " fill-opacity="1" fill-rule="nonzero"/><path fill="#e6b960" d="M 57.546875 250.023438 C 57.914062 248.011719 57.730469 245.734375 60.246094 244.832031 C 59.824219 246.816406 60.066406 249.121094 57.546875 250.023438 Z M 57.546875 250.023438 " fill-opacity="1" fill-rule="nonzero"/><path fill="#e6b960" d="M 59.964844 245.214844 C 60.417969 243.273438 60.289062 241.023438 62.636719 240.066406 C 62.441406 241.078125 62.425781 242.1875 61.976562 243.074219 C 61.554688 243.90625 60.65625 244.507812 59.980469 245.214844 Z M 59.964844 245.214844 " fill-opacity="1" fill-rule="nonzero"/><path fill="#e6b960" d="M 134.230469 297.835938 C 135.003906 297.933594 135.777344 297.960938 136.523438 298.128906 C 138.757812 298.609375 140.125 301.996094 138.507812 303.433594 C 136.257812 305.441406 134.820312 308.394531 131.742188 309.449219 L 132.121094 309.773438 C 132.359375 308.636719 132.25 307.214844 132.894531 306.414062 C 135.074219 303.671875 134.554688 300.5625 134.570312 297.511719 Z M 134.230469 297.835938 " fill-opacity="1" fill-rule="nonzero"/><path fill="#e6b960" d="M 122.207031 326.707031 C 122.320312 324.203125 122.953125 321.6875 122.054688 319.195312 C 122.8125 319.195312 123.558594 319.15625 124.316406 319.226562 C 126.414062 319.421875 127.507812 321.503906 126.425781 323.148438 C 125.371094 324.765625 124.050781 326.046875 122.207031 326.707031 Z M 122.207031 326.707031 " fill-opacity="1" fill-rule="nonzero"/><path fill="#e6b960" d="M 126.988281 283.589844 C 126.804688 279.75 128.621094 277.261719 132.164062 275.941406 C 132.277344 279.230469 130.574219 281.523438 128.070312 283.351562 C 127.804688 283.546875 127.355469 283.503906 126.988281 283.574219 Z M 126.988281 283.589844 " fill-opacity="1" fill-rule="nonzero"/><path fill="#e6b960" d="M 147.621094 255.550781 C 147.394531 255.816406 147.210938 256.253906 146.945312 256.324219 C 145.679688 256.605469 144.960938 256.113281 144.609375 254.707031 C 144.386719 253.832031 144.765625 253.074219 145.441406 253.230469 C 146.085938 253.382812 146.648438 254.015625 147.167969 254.523438 C 147.421875 254.761719 147.480469 255.199219 147.621094 255.550781 Z M 147.621094 255.550781 " fill-opacity="1" fill-rule="nonzero"/><path fill="#e6b960" d="M 119.859375 331.472656 C 119.984375 330.375 120 329.265625 120.253906 328.195312 C 120.519531 327.058594 121.421875 326.453125 122.574219 326.257812 C 122.375 328.367188 121.785156 330.265625 119.859375 331.472656 Z M 119.859375 331.472656 " fill-opacity="1" fill-rule="nonzero"/><path fill="#e6b960" d="M 144.089844 323.175781 C 144.035156 324.203125 144.046875 325.257812 143.90625 326.269531 C 143.710938 327.761719 142.867188 328.757812 141.363281 329.125 C 141.050781 326.578125 142.261719 324.738281 144.089844 323.175781 Z M 144.089844 323.175781 " fill-opacity="1" fill-rule="nonzero"/><path fill="#e6b960" d="M 131.742188 309.449219 C 131.65625 310.503906 131.601562 311.574219 131.445312 312.613281 C 131.40625 312.925781 130.953125 313.472656 130.8125 313.429688 C 129.984375 313.207031 129.703125 312.613281 129.929688 311.828125 C 130.25 310.714844 130.96875 310.011719 132.121094 309.773438 C 132.121094 309.773438 131.742188 309.449219 131.742188 309.449219 Z M 131.742188 309.449219 " fill-opacity="1" fill-rule="nonzero"/><path fill="#e6b960" d="M 140.40625 262.679688 C 140.644531 262.945312 141.121094 263.285156 141.066406 263.480469 C 140.882812 264.167969 140.515625 264.816406 140.222656 265.464844 C 139.96875 265.183594 139.433594 264.832031 139.492188 264.648438 C 139.6875 263.957031 140.082031 263.324219 140.390625 262.679688 Z M 140.40625 262.679688 " fill-opacity="1" fill-rule="nonzero"/><path fill="#e6b960" d="M 83.886719 237.746094 C 83.773438 239.6875 83.832031 241.710938 81.46875 242.511719 L 81.847656 242.851562 C 81.933594 241.851562 81.90625 240.8125 82.128906 239.839844 C 82.367188 238.800781 83.15625 238.210938 84.253906 238.082031 L 83.886719 237.757812 Z M 83.886719 237.746094 " fill-opacity="1" fill-rule="nonzero"/><path fill="#e6b960" d="M 84.253906 238.082031 C 84.335938 237.335938 84.324219 236.5625 84.535156 235.859375 C 84.6875 235.339844 85.125 234.917969 85.433594 234.453125 C 85.574219 234.765625 85.8125 235.074219 85.828125 235.398438 C 85.855469 235.75 85.785156 236.210938 85.5625 236.4375 C 85.070312 236.945312 84.4375 237.324219 83.875 237.757812 L 84.238281 238.082031 Z M 84.253906 238.082031 " fill-opacity="1" fill-rule="nonzero"/><path fill="#e6b960" d="M 108.1875 235.636719 C 108.242188 234.890625 108.257812 234.132812 108.382812 233.398438 C 108.554688 232.429688 109.015625 231.980469 109.539062 232.261719 C 109.777344 232.386719 109.902344 232.867188 109.917969 233.1875 C 109.929688 233.539062 109.875 234.03125 109.648438 234.230469 C 109.117188 234.679688 108.46875 234.988281 107.878906 235.355469 L 108.203125 235.636719 Z M 108.1875 235.636719 " fill-opacity="1" fill-rule="nonzero"/></svg>